<?xml version="1.0" encoding="UTF-8" standalone="no"?>
<!DOCTYPE svg PUBLIC "-//W3C//DTD SVG 1.1//EN" "http://www.w3.org/Graphics/SVG/1.1/DTD/svg11.dtd">
<svg xmlns="http://www.w3.org/2000/svg" xmlns:dc="http://purl.org/dc/elements/1.1/" version="1.1" xmlns:xl="http://www.w3.org/1999/xlink" viewBox="3136 832 431.64654 321" width="431.64654" height="321">
  <defs/>
  <metadata> Produced by OmniGraffle 7.19.4\n2023-04-30 17:28:57 +0000</metadata>
  <g id="Canvas_1" stroke-dasharray="none" fill="none" fill-opacity="1" stroke="none" stroke-opacity="1">
    <title>Canvas 1</title>
    <rect fill="white" x="3136" y="832" width="431.64654" height="321"/>
    <g id="Canvas_1_Layer_1">
      <title>Layer 1</title>
      <g id="Group_64">
        <g id="Graphic_67">
          <path d="M 3288.561 832.4126 C 3280.5844 832.6251 3267.1255 832.9877 3258.655 833.219 C 3250.1785 833.444 3243.2396 833.6378 3243.2334 833.6441 C 3243.2146 833.6628 3242.8145 846.5591 3241.983 873.9769 C 3241.752 881.5034 3241.5518 887.6858 3241.5268 887.7108 C 3241.508 887.7296 3235.6507 887.5671 3228.518 887.3483 C 3221.3854 887.1232 3209.3643 886.7544 3201.813 886.5231 C 3194.255 886.2918 3188.06 886.0793 3188.035 886.0543 C 3187.9914 886.0105 3187.704 876.89 3186.766 845.7839 C 3186.5536 838.8388 3186.366 832.9502 3186.3473 832.7001 L 3186.3098 832.25 L 3161.5925 832.25 L 3136.875 832.25 L 3136.875 875.0396 L 3136.875 917.8292 L 3215.578 917.8292 L 3294.281 917.8292 L 3294.281 928.8939 L 3294.281 939.9585 L 3216.8595 939.9585 C 3174.2762 939.9585 3139.438 939.971 3139.438 939.9898 C 3139.438 940.021 3155.8476 961.5565 3155.9664 961.6878 C 3156.004 961.7253 3159.861 966.7762 3164.5368 972.9149 L 3173.0385 984.0734 L 3214.3278 984.1109 C 3253.0165 984.1421 3259.199 984.1671 3271.3076 984.3422 C 3290.5863 984.6172 3304.9266 985.1173 3308.471 985.6299 C 3309.2275 985.7424 3309.6713 985.93 3310.29 986.3926 C 3311.8155 987.549 3312.8907 989.8057 3313.347 992.8438 C 3313.6033 994.5379 3313.622 995.0567 3313.6283 1000.7204 L 3313.6283 1006.1902 L 3244.6024 1006.2089 L 3175.5702 1006.2214 L 3175.5702 1013.129 L 3175.5702 1020.0366 L 3175.7765 1020.0366 C 3175.8828 1020.0366 3193.5612 1020.1491 3215.0466 1020.2867 C 3244.9212 1020.4867 3263.875 1020.643 3295.581 1020.968 C 3318.3793 1021.1993 3337.058 1021.4056 3337.0767 1021.4244 C 3337.1267 1021.4744 3338.727 1041.3158 3338.727 1041.8846 L 3338.727 1042.1034 L 3257.1486 1042.1034 L 3175.5702 1042.1034 L 3175.5702 1049.011 L 3175.5702 1055.9186 L 3212.8587 1055.9186 L 3250.1472 1055.9186 L 3250.1472 1063.9764 L 3250.1472 1072.0405 L 3248.5407 1072.0092 C 3247.653 1071.9905 3225.13 1071.6967 3198.481 1071.3591 C 3171.8382 1071.0215 3149.015 1070.7215 3147.771 1070.7027 C 3145.677 1070.659 3145.502 1070.6652 3145.502 1070.7652 C 3145.502 1070.8215 3144.7142 1077.6541 3143.7515 1085.9432 C 3142.795 1094.2386 3140.657 1112.6734 3139.0006 1126.9137 C 3137.3503 1141.154 3136 1152.85 3136 1152.9 C 3136 1152.9937 3149.39 1153 3284.7165 1153 C 3396.4507 1153 3433.433 1152.9812 3433.433 1152.9312 C 3433.433 1152.8875 3431.914 1144.8672 3430.0573 1135.0965 C 3428.1944 1125.3259 3424.85 1107.7287 3422.6183 1095.9826 L 3418.555 1074.6347 L 3418.555 1065.2829 L 3418.555 1055.9311 L 3401.8205 1055.8998 C 3385.636 1055.8686 3383.8107 1055.8498 3381.2978 1055.6685 C 3377.053 1055.3622 3375.3404 1054.6308 3374.734 1052.8805 C 3374.4277 1052.0116 3374.409 1051.624 3374.3777 1046.7106 L 3374.3464 1042.1034 L 3428.332 1042.1034 L 3482.3174 1042.1034 L 3482.3174 1041.9096 C 3482.3174 1041.397 3480.7046 1021.4681 3480.661 1021.4244 C 3480.6296 1021.3931 3434.458 1020.6617 3424.8062 1020.543 C 3422.037 1020.5055 3409.5908 1020.3742 3397.1446 1020.2554 C 3384.6984 1020.1304 3374.4777 1020.0179 3374.44 1020.0054 C 3374.3777 1019.9804 3374.359 1018.5488 3374.359 1013.104 L 3374.359 1006.2339 L 3375.6904 1006.1964 C 3376.4156 1006.1777 3387.155 1006.0464 3399.5513 1005.9089 C 3416.2046 1005.7213 3428.1506 1005.5525 3445.3102 1005.2525 C 3458.0815 1005.0274 3468.7773 1004.8462 3469.0836 1004.8462 L 3469.6275 1004.8462 L 3469.6275 995.1568 L 3469.6275 985.4674 L 3468.79 985.4674 C 3468.3335 985.4674 3457.7064 985.2861 3445.179 985.0673 C 3432.6515 984.8423 3421.362 984.6422 3420.0866 984.6235 C 3409.6908 984.4609 3400.589 984.1546 3392.7375 983.717 C 3384.3796 983.242 3378.6785 982.6543 3377.472 982.1417 L 3377.172 982.0167 L 3377.172 981.5041 C 3377.172 979.8475 3377.8346 978.4973 3379.1223 977.5283 C 3382.4667 975.0091 3390.9934 973.8901 3410.6472 973.4025 C 3421.5056 973.1337 3430.72 973.09 3477.554 973.09 L 3520.7 973.09 L 3520.7 962.0253 L 3520.7 950.9607 L 3477.1164 950.9607 C 3435.877 950.9607 3425.8627 950.9294 3419.8365 950.7731 C 3409.078 950.4981 3405.1774 949.9542 3404.3835 948.604 C 3404.2397 948.3539 3404.2272 948.2789 3404.2522 947.8538 C 3404.2835 947.435 3404.3272 947.3037 3404.665 946.6286 C 3405.5275 944.897 3406.5714 943.6405 3407.703 942.9779 C 3410.8535 941.1275 3417.7424 940.4586 3436.84 940.1461 C 3446.129 939.996 3460.0006 939.9585 3512.2795 939.9585 L 3567.6465 939.9585 L 3567.6465 928.8939 L 3567.6465 917.8292 L 3566.2588 917.8292 C 3565.49 917.8292 3547.1426 917.7042 3525.482 917.5479 C 3486.8433 917.2666 3411.7974 916.5352 3411.6974 916.4352 C 3411.6724 916.4102 3411.466 906.6208 3411.2286 894.681 C 3410.9973 882.7474 3410.6285 863.7687 3410.4034 852.5165 C 3410.1846 841.2643 3409.9846 832.0375 3409.966 832.0188 C 3409.9033 831.9562 3362.0253 833.6191 3361.9815 833.6816 C 3361.9627 833.7128 3361.7565 840.0078 3361.525 847.6718 C 3360.575 878.8404 3360.3 887.7171 3360.281 887.7296 C 3360.2687 887.7421 3354.4113 887.5671 3347.26 887.3483 C 3340.1085 887.1232 3328.075 886.7544 3320.5234 886.5231 C 3312.9657 886.2856 3306.7707 886.0855 3306.7582 886.0668 C 3306.7395 886.0543 3306.5457 879.9781 3306.3144 872.5704 C 3306.0894 865.1627 3305.7205 853.1604 3305.5018 845.909 C 3305.2767 838.6513 3305.0954 832.5564 3305.0954 832.3563 L 3305.0954 832 L 3304.0827 832.0063 C 3303.52 832.0125 3296.5375 832.1938 3288.561 832.4126 Z M 3385.4236 928.8939 L 3385.4236 939.9585 L 3353.6674 939.9585 L 3321.911 939.9585 L 3321.911 928.8939 L 3321.911 917.8292 L 3353.6674 917.8292 L 3385.4236 917.8292 Z M 3355.0426 1064.639 L 3355.0426 1073.3595 L 3354.8114 1073.3595 C 3353.88 1073.3657 3293.6807 1072.6031 3292.7368 1072.5718 L 3291.5303 1072.5343 L 3291.5303 1064.2265 L 3291.5303 1055.9186 L 3323.2865 1055.9186 L 3355.0426 1055.9186 Z" fill="black"/>
        </g>
        <g id="Graphic_66">
          <path d="M 3499.5708 984.6547 C 3494.3635 984.8173 3490.969 985.1361 3489.894 985.5611 C 3489.75 985.6237 3489.5313 985.78 3489.4126 985.9175 C 3488.7937 986.6426 3488.2123 988.8868 3487.8873 991.8124 C 3487.631 994.0753 3487.606 994.9317 3487.5997 1000.6578 L 3487.5997 1006.1902 L 3515.3426 1006.2089 C 3542.098 1006.2214 3543.0793 1006.2152 3543.0793 1006.1089 C 3543.0793 1005.9526 3542.554 999.2763 3541.948 991.8124 C 3541.6727 988.3742 3541.4227 985.5424 3541.404 985.5236 C 3541.379 985.5049 3535.609 985.2923 3528.5764 985.061 L 3515.7927 984.6297 L 3508.51 984.6172 C 3504.503 984.611 3500.4835 984.6297 3499.5708 984.6547 Z" fill="black"/>
        </g>
        <g id="Graphic_65">
          <path d="M 3437.89 1061.7447 C 3437.9213 1067.7084 3437.94 1068.2898 3438.19 1069.7713 C 3438.515 1071.7342 3439.0715 1073.0282 3440.0154 1074.0284 C 3442.1596 1076.285 3446.1104 1076.7914 3454.9996 1075.9475 C 3457.425 1075.7162 3459.3004 1075.4286 3460.8132 1075.0473 C 3463.5263 1074.366 3464.664 1073.2782 3465.158 1070.8903 C 3465.439 1069.5275 3465.4516 1069.0712 3465.483 1062.3386 L 3465.514 1055.9186 L 3451.6865 1055.9186 L 3437.8588 1055.9186 Z" fill="black"/>
        </g>
      </g>
    </g>
  </g>
</svg>
